<svg xmlns="http://www.w3.org/2000/svg" viewBox="0 0 1080 1080" width="1080" height="1080">
  <rect width="1080" height="1080" rx="236" fill="#0d1017"/>
  <path d="M955.944 282.471L851.708 343.977L581.731 186.005L529.937 217.729L799.266 375.054L539.001 523.962L278.088 372.464L383.618 314.843L554.539 413.252L604.391 381.528L335.061 224.85L594.679 74L955.944 282.471Z" fill="#5EB0EF" stroke="#5EB0EF" stroke-width="1.29485"/>
  <path d="M539.001 523.314L800.561 373.759L799.267 495.475L632.23 591.942V650.21L901.56 495.475V796.528L539.001 1005V885.226L810.273 729.844V669.633L539.001 825.015V523.314Z" fill="#006ADC"/>
  <path d="M276.793 371.169L539.001 523.314V824.368L435.412 764.805V567.987L382.323 536.263V849.617L124 698.767V283.766L225.646 344.624V656.037L276.793 686.466V371.169Z" fill="#0081F1"/>
</svg>
